<svg width="900" height="1600" viewBox="0 0 900 1600" fill="none" xmlns="http://www.w3.org/2000/svg">
  <defs>
    <linearGradient id="bgDash" x1="90" y1="80" x2="760" y2="1520" gradientUnits="userSpaceOnUse">
      <stop stop-color="#EAF8EF"/>
      <stop offset="1" stop-color="#F8FBFA"/>
    </linearGradient>
    <linearGradient id="headerDash" x1="190" y1="180" x2="675" y2="480" gradientUnits="userSpaceOnUse">
      <stop stop-color="#166534"/>
      <stop offset="1" stop-color="#22C55E"/>
    </linearGradient>
    <filter id="shadowDash" x="80" y="90" width="740" height="1430" filterUnits="userSpaceOnUse" color-interpolation-filters="sRGB">
      <feDropShadow dx="0" dy="24" stdDeviation="28" flood-color="#0F172A" flood-opacity="0.16"/>
    </filter>
    <filter id="cardDash" x="0" y="0" width="320" height="180" filterUnits="userSpaceOnUse" color-interpolation-filters="sRGB">
      <feDropShadow dx="0" dy="10" stdDeviation="12" flood-color="#0F172A" flood-opacity="0.08"/>
    </filter>
  </defs>

  <rect width="900" height="1600" rx="48" fill="url(#bgDash)"/>
  <circle cx="160" cy="180" r="120" fill="#DCFCE7"/>
  <circle cx="770" cy="1320" r="150" fill="#E2F7E8"/>
  <circle cx="740" cy="240" r="70" fill="#BBF7D0"/>

  <text x="450" y="92" text-anchor="middle" fill="#14532D" font-family="Inter, Arial, sans-serif" font-size="30" font-weight="700">Concept 1 · Dashboard Mobile</text>
  <text x="450" y="128" text-anchor="middle" fill="#4B5563" font-family="Inter, Arial, sans-serif" font-size="20">Visao rapida de CQ, modulos e alertas do turno</text>

  <g filter="url(#shadowDash)">
    <rect x="150" y="150" width="600" height="1320" rx="58" fill="#0F172A"/>
    <rect x="175" y="175" width="550" height="1270" rx="44" fill="#F7FBF8"/>
    <rect x="350" y="192" width="200" height="26" rx="13" fill="#0B1220"/>
  </g>

  <rect x="175" y="175" width="550" height="320" rx="44" fill="url(#headerDash)"/>
  <circle cx="660" cy="260" r="44" fill="rgba(255,255,255,0.16)"/>
  <circle cx="618" cy="314" r="18" fill="rgba(255,255,255,0.2)"/>
  <text x="220" y="250" fill="white" font-family="Inter, Arial, sans-serif" font-size="24" font-weight="500">BioQC</text>
  <text x="220" y="300" fill="white" font-family="Inter, Arial, sans-serif" font-size="42" font-weight="700">Bom dia, Otavio</text>
  <text x="220" y="338" fill="#DCFCE7" font-family="Inter, Arial, sans-serif" font-size="22">Turno da manha · Bioquimica</text>

  <rect x="220" y="374" width="214" height="92" rx="28" fill="rgba(255,255,255,0.18)"/>
  <text x="246" y="406" fill="#DCFCE7" font-family="Inter, Arial, sans-serif" font-size="18">CQ aprovado hoje</text>
  <text x="246" y="447" fill="white" font-family="Inter, Arial, sans-serif" font-size="36" font-weight="700">94%</text>

  <rect x="446" y="374" width="234" height="92" rx="28" fill="rgba(255,255,255,0.18)"/>
  <text x="472" y="406" fill="#DCFCE7" font-family="Inter, Arial, sans-serif" font-size="18">Alertas pendentes</text>
  <text x="472" y="447" fill="white" font-family="Inter, Arial, sans-serif" font-size="36" font-weight="700">2 itens</text>

  <g filter="url(#cardDash)" transform="translate(0 0)">
    <rect x="210" y="458" width="480" height="140" rx="32" fill="white"/>
  </g>
  <text x="238" y="505" fill="#111827" font-family="Inter, Arial, sans-serif" font-size="24" font-weight="700">Acoes rapidas</text>

  <rect x="238" y="525" width="130" height="48" rx="24" fill="#DCFCE7"/>
  <text x="303" y="556" text-anchor="middle" fill="#166534" font-family="Inter, Arial, sans-serif" font-size="18" font-weight="700">Registro</text>

  <rect x="384" y="525" width="138" height="48" rx="24" fill="#ECFDF3"/>
  <text x="453" y="556" text-anchor="middle" fill="#166534" font-family="Inter, Arial, sans-serif" font-size="18" font-weight="700">Referencia</text>

  <rect x="538" y="525" width="122" height="48" rx="24" fill="#F0FDF4"/>
  <text x="599" y="556" text-anchor="middle" fill="#166534" font-family="Inter, Arial, sans-serif" font-size="18" font-weight="700">PDF</text>

  <text x="220" y="650" fill="#111827" font-family="Inter, Arial, sans-serif" font-size="24" font-weight="700">Situacao dos modulos</text>
  <text x="220" y="680" fill="#6B7280" font-family="Inter, Arial, sans-serif" font-size="18">O que mais importa na primeira dobra do app</text>

  <rect x="210" y="714" width="480" height="142" rx="32" fill="white"/>
  <circle cx="258" cy="777" r="22" fill="#DCFCE7"/>
  <rect x="252" y="767" width="12" height="20" rx="6" fill="#166534"/>
  <text x="294" y="760" fill="#111827" font-family="Inter, Arial, sans-serif" font-size="24" font-weight="700">Bioquimica</text>
  <text x="294" y="792" fill="#6B7280" font-family="Inter, Arial, sans-serif" font-size="18">18 registros · 1 alerta preventivo</text>
  <rect x="548" y="742" width="112" height="40" rx="20" fill="#ECFDF3"/>
  <text x="604" y="768" text-anchor="middle" fill="#15803D" font-family="Inter, Arial, sans-serif" font-size="18" font-weight="700">Estavel</text>
  <rect x="294" y="815" width="324" height="12" rx="6" fill="#E5E7EB"/>
  <rect x="294" y="815" width="276" height="12" rx="6" fill="#22C55E"/>

  <rect x="210" y="876" width="480" height="142" rx="32" fill="white"/>
  <circle cx="258" cy="939" r="22" fill="#FEF3C7"/>
  <rect x="253" y="929" width="10" height="20" rx="5" fill="#D97706"/>
  <text x="294" y="922" fill="#111827" font-family="Inter, Arial, sans-serif" font-size="24" font-weight="700">Hematologia</text>
  <text x="294" y="954" fill="#6B7280" font-family="Inter, Arial, sans-serif" font-size="18">Padrao fora da faixa em 1 analito</text>
  <rect x="532" y="904" width="128" height="40" rx="20" fill="#FFF7ED"/>
  <text x="596" y="930" text-anchor="middle" fill="#C2410C" font-family="Inter, Arial, sans-serif" font-size="18" font-weight="700">Revisar</text>
  <rect x="294" y="977" width="324" height="12" rx="6" fill="#E5E7EB"/>
  <rect x="294" y="977" width="196" height="12" rx="6" fill="#F59E0B"/>

  <rect x="210" y="1038" width="480" height="142" rx="32" fill="white"/>
  <circle cx="258" cy="1101" r="22" fill="#DBEAFE"/>
  <rect x="249" y="1094" width="18" height="14" rx="4" fill="#2563EB"/>
  <text x="294" y="1084" fill="#111827" font-family="Inter, Arial, sans-serif" font-size="24" font-weight="700">Relatorios</text>
  <text x="294" y="1116" fill="#6B7280" font-family="Inter, Arial, sans-serif" font-size="18">PDF mensal e historico por lote</text>
  <rect x="522" y="1066" width="138" height="40" rx="20" fill="#EFF6FF"/>
  <text x="591" y="1092" text-anchor="middle" fill="#1D4ED8" font-family="Inter, Arial, sans-serif" font-size="18" font-weight="700">Exportar</text>
  <rect x="294" y="1139" width="324" height="12" rx="6" fill="#E5E7EB"/>
  <rect x="294" y="1139" width="232" height="12" rx="6" fill="#60A5FA"/>

  <rect x="205" y="1210" width="490" height="180" rx="34" fill="#0F172A"/>
  <text x="235" y="1260" fill="white" font-family="Inter, Arial, sans-serif" font-size="24" font-weight="700">Painel do turno</text>
  <text x="235" y="1293" fill="#94A3B8" font-family="Inter, Arial, sans-serif" font-size="18">1-2s em glicose · acompanhar proxima corrida</text>
  <rect x="235" y="1324" width="180" height="44" rx="22" fill="#166534"/>
  <text x="325" y="1352" text-anchor="middle" fill="white" font-family="Inter, Arial, sans-serif" font-size="18" font-weight="700">Abrir registro</text>
  <rect x="431" y="1324" width="220" height="44" rx="22" fill="#1E293B"/>
  <text x="541" y="1352" text-anchor="middle" fill="#E2E8F0" font-family="Inter, Arial, sans-serif" font-size="18" font-weight="700">Ver historico</text>

  <rect x="250" y="1398" width="400" height="26" rx="13" fill="#D1D5DB"/>

  <rect x="205" y="1360" width="490" height="76" rx="0" fill="none"/>
  <g>
    <circle cx="280" cy="1394" r="26" fill="#DCFCE7"/>
    <text x="280" y="1401" text-anchor="middle" fill="#166534" font-family="Inter, Arial, sans-serif" font-size="20" font-weight="700">H</text>
    <text x="280" y="1432" text-anchor="middle" fill="#166534" font-family="Inter, Arial, sans-serif" font-size="15" font-weight="700">Home</text>

    <circle cx="410" cy="1394" r="22" fill="#E5E7EB"/>
    <rect x="398" y="1382" width="24" height="24" rx="7" fill="#6B7280"/>
    <text x="410" y="1432" text-anchor="middle" fill="#6B7280" font-family="Inter, Arial, sans-serif" font-size="15">Registro</text>

    <circle cx="540" cy="1394" r="22" fill="#E5E7EB"/>
    <path d="M526 1403L538 1388L550 1396L560 1378" stroke="#6B7280" stroke-width="6" stroke-linecap="round" stroke-linejoin="round"/>
    <text x="540" y="1432" text-anchor="middle" fill="#6B7280" font-family="Inter, Arial, sans-serif" font-size="15">Historico</text>

    <circle cx="620" cy="1394" r="22" fill="#E5E7EB"/>
    <rect x="608" y="1382" width="24" height="24" rx="8" fill="#6B7280"/>
    <text x="620" y="1432" text-anchor="middle" fill="#6B7280" font-family="Inter, Arial, sans-serif" font-size="15">Mais</text>
  </g>
</svg>
